<svg width="614" height="107" viewBox="0 0 614 107" fill="none" xmlns="http://www.w3.org/2000/svg">
<path d="M154.914 86V35.68H163.424V86H154.914ZM138.042 41.97V34.2H180.296V41.97H138.042ZM199.841 86.74C196.289 86.74 193.082 85.9507 190.221 84.372C187.409 82.744 185.164 80.524 183.487 77.712C181.859 74.9 181.045 71.7427 181.045 68.24C181.045 64.7373 181.859 61.6047 183.487 58.842C185.115 56.03 187.31 53.81 190.073 52.182C192.885 50.554 195.993 49.74 199.397 49.74C202.702 49.74 205.613 50.5047 208.129 52.034C210.694 53.5633 212.692 55.66 214.123 58.324C215.603 60.988 216.343 64.022 216.343 67.426C216.343 68.018 216.294 68.6347 216.195 69.276C216.146 69.868 216.047 70.534 215.899 71.274H186.743V64.614H211.681L208.647 67.278C208.548 65.1073 208.129 63.282 207.389 61.802C206.649 60.322 205.588 59.1873 204.207 58.398C202.875 57.6087 201.222 57.214 199.249 57.214C197.177 57.214 195.376 57.658 193.847 58.546C192.318 59.434 191.134 60.692 190.295 62.32C189.456 63.8987 189.037 65.798 189.037 68.018C189.037 70.238 189.481 72.1867 190.369 73.864C191.257 75.5413 192.515 76.8487 194.143 77.786C195.771 78.674 197.646 79.118 199.767 79.118C201.592 79.118 203.27 78.7973 204.799 78.156C206.378 77.5147 207.71 76.5773 208.795 75.344L213.975 80.598C212.248 82.6207 210.152 84.15 207.685 85.186C205.218 86.222 202.604 86.74 199.841 86.74ZM228.788 86V50.48H236.928V86H228.788ZM236.928 66.242L234.116 64.836C234.116 60.3467 235.103 56.7207 237.076 53.958C239.099 51.146 242.133 49.74 246.178 49.74C247.954 49.74 249.558 50.0607 250.988 50.702C252.419 51.3433 253.751 52.3793 254.984 53.81L249.656 59.286C249.015 58.5953 248.3 58.102 247.51 57.806C246.721 57.51 245.808 57.362 244.772 57.362C242.503 57.362 240.628 58.0773 239.148 59.508C237.668 60.9387 236.928 63.1833 236.928 66.242ZM264.843 86V50.48H272.983V86H264.843ZM272.983 66.242L270.171 64.836C270.171 60.3467 271.158 56.7207 273.131 53.958C275.154 51.146 278.188 49.74 282.233 49.74C284.009 49.74 285.612 50.0607 287.043 50.702C288.474 51.3433 289.806 52.3793 291.039 53.81L285.711 59.286C285.07 58.5953 284.354 58.102 283.565 57.806C282.776 57.51 281.863 57.362 280.827 57.362C278.558 57.362 276.683 58.0773 275.203 59.508C273.723 60.9387 272.983 63.1833 272.983 66.242ZM314.688 86.74C311.481 86.74 308.57 85.926 305.956 84.298C303.39 82.67 301.343 80.4747 299.814 77.712C298.334 74.9 297.594 71.7673 297.594 68.314C297.594 64.8113 298.334 61.6787 299.814 58.916C301.343 56.104 303.39 53.884 305.956 52.256C308.57 50.5787 311.481 49.74 314.688 49.74C317.401 49.74 319.794 50.332 321.866 51.516C323.987 52.6507 325.664 54.2293 326.898 56.252C328.131 58.2747 328.748 60.5687 328.748 63.134V73.346C328.748 75.9113 328.131 78.2053 326.898 80.228C325.714 82.2507 324.061 83.854 321.94 85.038C319.818 86.1727 317.401 86.74 314.688 86.74ZM316.02 79.044C319.029 79.044 321.446 78.0327 323.272 76.01C325.146 73.9873 326.084 71.3973 326.084 68.24C326.084 66.1187 325.664 64.244 324.826 62.616C323.987 60.988 322.803 59.73 321.274 58.842C319.794 57.9047 318.042 57.436 316.02 57.436C314.046 57.436 312.295 57.9047 310.766 58.842C309.286 59.73 308.102 60.988 307.214 62.616C306.375 64.244 305.956 66.1187 305.956 68.24C305.956 70.3613 306.375 72.236 307.214 73.864C308.102 75.492 309.286 76.7747 310.766 77.712C312.295 78.6 314.046 79.044 316.02 79.044ZM325.566 86V76.454L326.972 67.796L325.566 59.212V50.48H333.706V86H325.566ZM373.302 86.74C369.552 86.74 366.074 86.074 362.868 84.742C359.71 83.3607 356.948 81.4613 354.58 79.044C352.212 76.5773 350.386 73.7407 349.104 70.534C347.821 67.278 347.18 63.8 347.18 60.1C347.18 56.4 347.821 52.9467 349.104 49.74C350.386 46.484 352.212 43.6473 354.58 41.23C356.948 38.8127 359.71 36.9133 362.868 35.532C366.074 34.1507 369.552 33.46 373.302 33.46C377.495 33.46 381.121 34.1507 384.18 35.532C387.238 36.9133 389.952 38.788 392.32 41.156L386.548 46.928C385.018 45.2507 383.144 43.9433 380.924 43.006C378.753 42.0687 376.212 41.6 373.302 41.6C370.736 41.6 368.393 42.044 366.272 42.932C364.15 43.82 362.3 45.1027 360.722 46.78C359.192 48.408 358.008 50.3567 357.17 52.626C356.331 54.8953 355.912 57.3867 355.912 60.1C355.912 62.8133 356.331 65.3047 357.17 67.574C358.008 69.8433 359.192 71.8167 360.722 73.494C362.3 75.122 364.15 76.38 366.272 77.268C368.393 78.156 370.736 78.6 373.302 78.6C376.459 78.6 379.123 78.1313 381.294 77.194C383.514 76.2073 385.388 74.8753 386.918 73.198L392.69 78.97C390.322 81.3873 387.534 83.2867 384.328 84.668C381.121 86.0493 377.446 86.74 373.302 86.74ZM419.671 86.74C416.662 86.74 413.973 86.074 411.605 84.742C409.286 83.41 407.461 81.5847 406.129 79.266C404.846 76.898 404.205 74.1847 404.205 71.126V50.48H412.345V70.756C412.345 72.4827 412.616 73.9627 413.159 75.196C413.751 76.38 414.59 77.2927 415.675 77.934C416.81 78.5753 418.142 78.896 419.671 78.896C422.039 78.896 423.84 78.2053 425.073 76.824C426.356 75.3933 426.997 73.3707 426.997 70.756V50.48H435.137V71.126C435.137 74.234 434.471 76.972 433.139 79.34C431.856 81.6587 430.056 83.484 427.737 84.816C425.418 86.0987 422.73 86.74 419.671 86.74ZM460.86 86.74C458.886 86.74 456.987 86.4933 455.162 86C453.336 85.4573 451.659 84.7173 450.13 83.78C448.6 82.7933 447.268 81.6093 446.134 80.228L451.314 75.048C452.547 76.4787 453.953 77.564 455.532 78.304C457.16 78.9947 458.985 79.34 461.008 79.34C462.833 79.34 464.214 79.0687 465.152 78.526C466.089 77.9833 466.558 77.194 466.558 76.158C466.558 75.0727 466.114 74.234 465.226 73.642C464.338 73.05 463.178 72.5567 461.748 72.162C460.366 71.718 458.886 71.274 457.308 70.83C455.778 70.386 454.298 69.794 452.868 69.054C451.486 68.2647 450.352 67.204 449.464 65.872C448.576 64.54 448.132 62.8133 448.132 60.692C448.132 58.4227 448.65 56.474 449.686 54.846C450.771 53.218 452.276 51.96 454.2 51.072C456.173 50.184 458.516 49.74 461.23 49.74C464.091 49.74 466.607 50.258 468.778 51.294C470.998 52.2807 472.848 53.7853 474.328 55.808L469.148 60.988C468.112 59.7053 466.928 58.7433 465.596 58.102C464.264 57.4607 462.734 57.14 461.008 57.14C459.38 57.14 458.122 57.3867 457.234 57.88C456.346 58.3733 455.902 59.0887 455.902 60.026C455.902 61.0127 456.346 61.7773 457.234 62.32C458.122 62.8627 459.256 63.3313 460.638 63.726C462.068 64.1207 463.548 64.5647 465.078 65.058C466.656 65.502 468.136 66.1433 469.518 66.982C470.948 67.7713 472.108 68.8567 472.996 70.238C473.884 71.57 474.328 73.3213 474.328 75.492C474.328 78.9453 473.119 81.6833 470.702 83.706C468.284 85.7287 465.004 86.74 460.86 86.74ZM492.361 86V35.68H500.501V86H492.361ZM483.851 57.88V50.48H509.011V57.88H483.851ZM536.114 86.74C532.66 86.74 529.528 85.926 526.716 84.298C523.904 82.6207 521.659 80.376 519.982 77.564C518.354 74.752 517.54 71.6193 517.54 68.166C517.54 64.7127 518.354 61.6047 519.982 58.842C521.659 56.0793 523.904 53.884 526.716 52.256C529.528 50.5787 532.66 49.74 536.114 49.74C539.616 49.74 542.774 50.554 545.586 52.182C548.398 53.81 550.618 56.03 552.246 58.842C553.923 61.6047 554.762 64.7127 554.762 68.166C554.762 71.6193 553.923 74.752 552.246 77.564C550.618 80.376 548.398 82.6207 545.586 84.298C542.774 85.926 539.616 86.74 536.114 86.74ZM536.114 78.896C538.136 78.896 539.912 78.452 541.442 77.564C543.02 76.6267 544.229 75.344 545.068 73.716C545.956 72.088 546.4 70.238 546.4 68.166C546.4 66.094 545.956 64.2687 545.068 62.69C544.18 61.1113 542.971 59.878 541.442 58.99C539.912 58.0527 538.136 57.584 536.114 57.584C534.14 57.584 532.364 58.0527 530.786 58.99C529.256 59.878 528.048 61.1113 527.16 62.69C526.321 64.2687 525.902 66.094 525.902 68.166C525.902 70.238 526.321 72.088 527.16 73.716C528.048 75.344 529.256 76.6267 530.786 77.564C532.364 78.452 534.14 78.896 536.114 78.896ZM579.069 86.74C577.096 86.74 575.196 86.4933 573.371 86C571.546 85.4573 569.868 84.7173 568.339 83.78C566.81 82.7933 565.478 81.6093 564.343 80.228L569.523 75.048C570.756 76.4787 572.162 77.564 573.741 78.304C575.369 78.9947 577.194 79.34 579.217 79.34C581.042 79.34 582.424 79.0687 583.361 78.526C584.298 77.9833 584.767 77.194 584.767 76.158C584.767 75.0727 584.323 74.234 583.435 73.642C582.547 73.05 581.388 72.5567 579.957 72.162C578.576 71.718 577.096 71.274 575.517 70.83C573.988 70.386 572.508 69.794 571.077 69.054C569.696 68.2647 568.561 67.204 567.673 65.872C566.785 64.54 566.341 62.8133 566.341 60.692C566.341 58.4227 566.859 56.474 567.895 54.846C568.98 53.218 570.485 51.96 572.409 51.072C574.382 50.184 576.726 49.74 579.439 49.74C582.3 49.74 584.816 50.258 586.987 51.294C589.207 52.2807 591.057 53.7853 592.537 55.808L587.357 60.988C586.321 59.7053 585.137 58.7433 583.805 58.102C582.473 57.4607 580.944 57.14 579.217 57.14C577.589 57.14 576.331 57.3867 575.443 57.88C574.555 58.3733 574.111 59.0887 574.111 60.026C574.111 61.0127 574.555 61.7773 575.443 62.32C576.331 62.8627 577.466 63.3313 578.847 63.726C580.278 64.1207 581.758 64.5647 583.287 65.058C584.866 65.502 586.346 66.1433 587.727 66.982C589.158 67.7713 590.317 68.8567 591.205 70.238C592.093 71.57 592.537 73.3213 592.537 75.492C592.537 78.9453 591.328 81.6833 588.911 83.706C586.494 85.7287 583.213 86.74 579.069 86.74Z" fill="white"/>
<path d="M15.9401 5.07875C0.685917 8.21854 5.96402 21.6136 5.96402 21.6136C2.37785 26.6342 2.59018 33.6712 5.88377 38.8423C8.69587 43.256 5.86538 50.6373 14.0041 59.0168C15.2864 60.3359 10.5433 67.6336 20.0145 74.6488C22.0792 76.1786 25.3126 78.7115 24.4968 82.5066C23.4803 87.233 32.8344 91.5849 34.4845 96.8028C37.9386 107.737 51.4139 104.433 57.5865 94.9905C57.5865 94.9905 55.3997 95.6476 54.6607 94.1746C61.4485 90.764 62.5603 81.9532 53.6994 81.1123C61.6425 74.2308 57.9744 65.1542 69.8179 63.138C79.4212 61.5029 81.0947 57.4034 81.0947 57.4034C94.132 57.4686 112.546 48.6729 97.1514 29.5099C122.706 37.4981 68.2547 -5.68812 15.9401 5.07875ZM9.83274 27.0388C11.9711 29.2775 14.412 31.2001 16.9299 32.9924C14.9938 33.4973 13.113 34.2145 11.4779 35.4016C10.2273 32.9991 8.84132 29.7439 9.83274 27.0388ZM14.9871 49.3116C18.6485 53.4311 23.0991 54.3088 23.0991 54.3088C19.8924 55.8636 15.6609 56.5876 14.9871 49.3116ZM25.1705 77.0864C25.1705 77.0864 27.5195 77.1416 27.568 77.7485C27.9091 82.2458 25.1705 77.0864 25.1705 77.0864ZM28.9322 76.1351C21.5392 73.9333 24.9231 72.4988 35.0797 74.8127C47.0453 77.5378 54.094 74.3646 50.8823 76.6751C49.493 77.6749 42.3106 80.1242 28.9322 76.1351ZM39.2828 83.0851C41.3877 79.9453 59.2801 77.705 46.4251 82.4698C44.7482 83.0901 38.5154 84.2287 39.2828 83.0851ZM34.2087 80.156C36.7984 77.5127 42.3022 79.8667 42.3022 79.8667C42.3022 79.8667 37.937 81.0822 34.2087 80.156ZM36.4607 88.7143C36.4607 88.7176 36.4596 88.7199 36.4574 88.721L36.454 88.7243C35.1165 90.7389 31.7109 86.9187 31.7677 85.2853C31.8881 81.8596 41.6769 84.6784 41.6769 84.6784C41.6769 84.6784 37.6862 86.8652 36.4607 88.7143ZM40.7775 88.1709C42.8974 85.4391 59.342 84.5045 47.3245 88.0506C45.758 88.512 40.0051 89.164 40.7775 88.1709ZM41.0383 96.629C43.7952 96.6708 46.5605 96.4618 49.2723 95.9385C47.592 97.8962 44.4974 100.56 41.0383 96.629ZM47.5787 92.9408C46.1258 93.1949 40.9045 93.1966 41.7004 92.3874C43.8888 90.1555 58.7134 90.983 47.5787 92.9408ZM45.1595 89.6857C49.6033 87.6008 52.5575 87.7429 52.5575 87.7429C52.5575 87.7429 49.2071 90.4196 45.1595 89.6857ZM56.1654 68.9243C55.1623 70.21 48.7724 73.6658 38.0072 70.8319C17.2057 73.3581 18.5315 62.7133 21.1229 64.1896C25.3645 66.6088 29.937 68.4361 34.6367 69.7669C31.7762 68.7313 29.0134 67.4433 26.381 65.9183C17.953 61.0765 22.3835 61.0013 34.6467 65.818C49.1001 71.4957 59.0578 65.1977 56.1654 68.9243ZM58.5395 61.4059C57.5347 62.0195 54.0839 62.8671 48.8861 62.4876C51.0946 63.255 53.4503 63.999 56.0183 64.6075C51.1331 65.8949 34.3909 65.4853 26.5197 59.3863C28.3065 58.4903 30.2694 58.001 32.2676 57.9535C27.7803 55.8937 22.9018 52.9947 17.7574 48.9504C7.59577 40.9572 13.8452 42.2278 29.3987 51.3629C47.7291 62.1281 63.8895 58.119 58.5395 61.4059ZM62.4751 56.9771C52.4605 58.0354 46.3014 54.9575 46.3014 54.9575C46.3014 54.9575 58.1299 55.8519 56.0066 53.7938C48.871 46.8706 24.8412 56.6143 15.0122 40.372C19.5045 36.3278 24.7225 38.0949 29.1697 40.6111C21.0042 45.8541 29.8133 42.507 34.5548 43.5285C35.7401 43.7843 37.0994 44.112 38.5505 44.4932C32.6806 41.4153 26.3408 37.2707 19.8606 31.6933C8.65909 22.0483 16.1792 25.6545 34.1986 37.9161C55.4398 52.3677 76.9535 51.9866 68.9285 52.9546C67.4272 53.1351 62.8629 53.0081 56.3761 51.3897C59.1999 53.0649 61.4335 54.9391 62.4751 56.9771ZM68.4838 55.7851C69.5003 56.6394 73.8388 55.8887 73.8388 55.8887C71.326 57.3884 67.3051 60.1821 68.4838 55.7851ZM23.3131 29.2022C52.9638 31.705 71.5901 39.7752 75.3519 50.2896C52.9103 48.4138 61.7495 37.6519 23.3131 29.2022ZM93.4683 49.4871C93.1256 39.8788 77.5303 25.0309 85.1156 41.1361C88.354 48.0092 84.5004 53.4846 81.0998 48.1346C64.6803 22.3024 30.3701 32.2216 15.5138 23.3122C30.3166 16.083 88.5212 36.6705 73.7435 29.9228C30.7462 10.2917 11.1702 20.9967 11.1719 16.2736C11.1753 7.43777 40.423 2.42382 79.5834 19.6408C31.4819 10.1847 26.5599 15.2538 34.6216 16.068C93.48 22.0165 103.496 39.618 93.4683 49.4871Z" fill="#813737"/>
</svg>
